<svg xmlns="http://www.w3.org/2000/svg" viewBox="0 0 564.01 122.64"><g data-name="Livello 2"><g data-name="Layer 1"><path d="m438.84 66.58-15.2-27.5h-8.95v45.19h7.3V49.63l13.33 23.99h6.84l13.34-23.99v34.64h7.29V39.08h-8.75l-15.2 27.5zM494.05 52.07a14.72 14.72 0 0 0-8.28-2.27 16.26 16.26 0 0 0-8.57 2.25 15.75 15.75 0 0 0-5.83 6.27 19.62 19.62 0 0 0-2.09 9.2 18.85 18.85 0 0 0 2.14 9.1 15.63 15.63 0 0 0 6 6.21 17.3 17.3 0 0 0 8.91 2.25 20.21 20.21 0 0 0 14.17-5.3L496.62 75a14.28 14.28 0 0 1-4.43 3 14.63 14.63 0 0 1-5.61 1 9.74 9.74 0 0 1-6.73-2.37 10.67 10.67 0 0 1-3.34-6.5h24.75v-2a22.93 22.93 0 0 0-1.87-9.62 14.75 14.75 0 0 0-5.34-6.44Zm-17.54 12.67a11.12 11.12 0 0 1 3.08-6.42 8.26 8.26 0 0 1 6.05-2.39 8 8 0 0 1 6 2.34 10.1 10.1 0 0 1 2.61 6.47ZM517.15 40.73h-7v9.87h-6.75v6h6.71v16q0 12.4 11.39 12.4a20.38 20.38 0 0 0 5.85-.81V78.3q-1.17.2-2.13.3a19.76 19.76 0 0 1-2.36.12q-3.14 0-4.42-1.62t-1.29-5.39V56.57h10.2v-6h-10.2ZM557.11 50.6v4.33a12.27 12.27 0 0 0-4.55-3.79 13.87 13.87 0 0 0-6.2-1.34 14.79 14.79 0 0 0-8.12 2.25 15.59 15.59 0 0 0-5.54 6.23 20.12 20.12 0 0 0-2 9.14 20.38 20.38 0 0 0 2 9.12 15.62 15.62 0 0 0 5.41 6.26 13.94 13.94 0 0 0 7.89 2.28 14.12 14.12 0 0 0 6.46-1.44 12.59 12.59 0 0 0 4.68-4.08v4.71H564V50.6ZM557 72.49a9.55 9.55 0 0 1-3.7 4.51 10.32 10.32 0 0 1-5.81 1.67 8.75 8.75 0 0 1-7-3c-1.72-2-2.58-4.77-2.58-8.23a11.93 11.93 0 0 1 2.68-8.2 9.14 9.14 0 0 1 7.2-3 9.59 9.59 0 0 1 9.2 6.19ZM379.45 37.55c-5.87 0-10.45 4.42-14.6 10-.3-.38-.6-.74-.9-1.1l-.13-.17c-.43-.51-.85-1-1.27-1.46l-.35-.38c-.32-.34-.63-.67-.95-1l-.34-.35c-.41-.4-.82-.78-1.23-1.13l-.13-.11q-.54-.46-1.08-.87l-.36-.27-.94-.65-.29-.19c-.4-.24-.8-.47-1.2-.68l-.26-.12c-.32-.16-.64-.31-1-.44l-.36-.15c-.34-.13-.68-.25-1-.35l-.2-.06c-.41-.12-.82-.21-1.24-.29l-.33-.06-1-.13h-.36c-.43 0-.86-.06-1.3-.06-11.64 0-20.55 15.15-20.55 31.18 0 10 4.85 16.36 13 16.36 5.85 0 10.06-2.76 17.54-15.83l5.26-9.3 1 1.67.24.4c.36.59.72 1.18 1.09 1.81l3.51 5.9c6.83 11.44 10.64 15.31 17.54 15.31 7.92 0 12.32-6.41 12.32-16.65.06-16.73-9.05-30.83-20.13-30.83Zm-26.53 28.16c-6.06 9.51-8.16 11.64-11.54 11.64s-5.54-3-5.54-8.49c0-11.64 5.81-23.54 12.72-23.54h.78a5.32 5.32 0 0 1 .56.06h.1c.2 0 .4.08.59.12h.16l.51.15h.1c.2.07.39.14.59.23l.14.07a4.66 4.66 0 0 1 .5.25l.13.06.59.36.14.09.51.36.14.1c.2.16.41.32.61.5l.12.11q.27.23.54.48l.16.15c.21.21.43.42.65.65l.09.1.59.65a1.63 1.63 0 0 1 .17.2l.7.82h.05l.68.86c.06.08.12.17.19.25l.72 1v.05c.26.35.52.71.78 1.09l.09.13c-4.56 7.13-7.32 11.5-7.32 11.5Zm34.56 11.64c-3.45 0-5.1-2.28-11.66-12.83l-4.2-7c-.89-1.45-1.75-2.79-2.59-4.06-.23-.34-.46-.71-.68-1 3.78-5.83 6.9-8.74 10.61-8.74 7.7 0 13.87 11.35 13.87 25.28 0 5.27-1.74 8.35-5.35 8.35ZM83.17 110.65c-1.09-.54-28.47-13.46-29.78-14.13A2.83 2.83 0 0 1 52 93.91v-6.14c0-2.2.3-2.59 2-3.81 27-19.89 31.63-37.02 24-47.87C62.4 13.83 8.65 48.45 4.73 51.31A11.69 11.69 0 0 0 .18 60C.06 61 0 66.11 0 67.51c0 1.17-.07 2.24 2.88-.19C21.64 51.86 65 24.25 73.33 41.55 77.41 50 74.69 62.82 54.19 78c-1.71 1.23-2.19-.4-2.19-1.46V44.66c0-3.06-2.66-1.93-3.55-1.35l-3.87 2.51a2.31 2.31 0 0 0-1.32 2.41c0 .52.13 32.27.12 34.72 0 2.17 0 2.88-1.06 3.63-.62.44-9.63 5.71-11.43 6.8-1.52.91-1 2.24-.21 2.59.57.26 9.83 4.64 11.29 5.3a2.18 2.18 0 0 1 1.49 2.37v16.06c0 2.74 1.71 1.42 2.37 1.09.47-.24 3.08-1.78 4.68-2.92a4.06 4.06 0 0 0 1.41-3.62v-5.46c0-2.04 1.17-2.24 1.89-1.91S74.94 117 78.75 118.76c2.39 1.13 4.38.28 5.2-1.13.15-.24.79-1.44 1.47-3 .94-2.13-.91-3.34-2.25-3.98Z"/><path d="M114.61 68c-3.83 0-7 15.22-10.15 15.07-2.64-.07-.46-10.49-4.46-10.52-2.48 0-3.22 4.15-4.35 7.72-.07.2-1.89 7.39-4.67 7.39-1.78 0-3.33-1.42-3.33-5.61 0-2-.09-4.87-2.44-5.36-4-.84-3.12 3.33-6.68 2.66-9.63-1.82-16.92 18-11.05 20.6 7 3.17 12.13-9.29 14.23-8.94 1.59.26.55 5.62 5.59 5.28 4.11-.27 7.35-8.76 9-8.65 1.42.08.19 5.09 3.72 5.28 4.15.22 5.86-6.67 7.76-6.7.47 0 .67.36.63 2-.06 2.31-.36 31.49-.41 32.43-.09 1.81.78 2 1.18 2s4.25-.08 5-.12.91-.74.9-1.18c0-.18.54-42.48.58-51.64-.05-1.71-.75-1.71-1.05-1.71ZM80.44 85.42c-1 3.45-4.86 9.13-6.68 9.3-.54 0-1.34-.23-1.31-1.48.07-2.92 4.63-9.52 6.5-10 1.28-.37 1.85.88 1.49 2.18ZM234.49 49.2c-7.49 4.72-6-12.75-10.59-12.75-5 0-6.41 10.36-8.19 10.53-2.16.22.81-7.59-3.48-7.41-4.73.18-7.38 17.34-10.81 16s-1-10.43-5-11.09c-2.05-.34-2.47 1.3-3.69 2.09-1.83 1.18-5.1-.88-10.25 5.12-5.81 6.77-7.59 17.72-3.16 18.46 6 1 11.42-9.19 12.79-10.49 1.93-1.84.86 5.27 6 5.38 5.47.1 7.12-8.93 8.71-8.84 1.37.07-.21 4.74 2.39 5.07 5.65.72 8.75-14.09 11.07-13.77s1.45 9.17 7 9.73c4.75.47 8-6 8.44-7s-.19-1.7-1.23-1.03Zm-42.56 4.65c-1.09 3.08-4.22 8-6.14 8.36-.65.12-1.46-.53-1.41-1.66.13-2.65 4.56-8.25 6.35-8.68 1.27-.28 1.64.73 1.2 1.98ZM125.63 66c-4.06 2.49-5.14 6.39-3.15 8.62s6.76 1.76 9.67-.18c3.34-2.21 4.51-5.91 2.53-8.15s-5.98-2.19-9.05-.29ZM172 55.61c-4.47-3.89-9.64-7.28-13.91-10.55-2.47-1.88-.76-4.19 1.88-6.16 9.39-7 22.49-18.79 16.47-32.95-5.81-13.69-33.17-3.13-34.29 25.21-.39 10.1.95 38.05.2 45.05-.43 4.07 1.11 3.62 2.6 3a10 10 0 0 0 6.32-9.77c-.28-6.64-.88-35.56-1.08-38.55-1-15.6 8.66-30.2 14.85-24.12 9.53 9.39-6.71 27.18-10.63 31.76-1.76 2-3.39 5.1-.62 8s5.71 5.74 8.12 7.95c3 2.75 2.08 7.89.21 10.67-1.26 1.86-4.05 5.12-7.27 9.25s-6.16 7.89-6.49 8.31a6.74 6.74 0 0 0-.48 7.92c3.46 5.38 3.79 5.31 6 1.46a107.18 107.18 0 0 1 12.23-16.53 75.5 75.5 0 0 0 5.6-7.17c3.29-4.75 3.63-9.84.29-12.78ZM280.84 0h2.5v122.64h-2.5z"/></g></g></svg>